# Blender v2.79 (sub 0) OBJ File: ''
# www.blender.org
mtllib pino.mtl
o Cube.001_Cube.002
v 0.003474 1.386803 -0.482867
v 0.003474 2.064267 -0.002176
v 0.286017 1.386803 -0.391063
v 0.460637 1.386803 -0.150718
v 0.460637 1.386803 0.146365
v 0.286017 1.386803 0.386710
v 0.003474 1.386803 0.478514
v -0.279068 1.386803 0.386710
v -0.453689 1.386803 0.146365
v -0.453689 1.386803 -0.150718
v -0.279068 1.386803 -0.391063
v 0.003474 0.625231 -0.482867
v 0.003474 1.302695 -0.002177
v 0.286017 0.625231 -0.391063
v 0.460637 0.625231 -0.150718
v 0.460637 0.625231 0.146365
v 0.286017 0.625231 0.386710
v 0.003474 0.625231 0.478513
v -0.279068 0.625231 0.386710
v -0.453689 0.625231 0.146365
v -0.453689 0.625231 -0.150718
v -0.279068 0.625231 -0.391063
v 0.003474 1.032997 -0.482867
v 0.003474 1.710460 -0.002177
v 0.286017 1.032997 -0.391063
v 0.460637 1.032997 -0.150718
v 0.460637 1.032997 0.146365
v 0.286017 1.032997 0.386710
v 0.003474 1.032997 0.478514
v -0.279068 1.032997 0.386710
v -0.453689 1.032997 0.146365
v -0.453689 1.032997 -0.150718
v -0.279068 1.032997 -0.391063
v 0.001930 1.752736 -0.006466
v 0.139678 1.695567 -0.006466
v 0.103965 1.651102 -0.108502
v 0.001930 1.695567 -0.144214
v -0.100107 1.651102 -0.108502
v -0.135819 1.695567 -0.006466
v -0.100107 1.651102 0.095570
v 0.001930 1.695567 0.131283
v 0.103965 1.651102 0.095570
v 0.001930 -0.006103 -0.006467
v -0.235523 -0.006103 -0.006467
v -0.173962 -0.006103 -0.182357
v 0.001930 -0.006103 -0.243918
v 0.177820 -0.006103 -0.182357
v 0.239382 -0.006103 -0.006467
v 0.177820 -0.006103 0.169425
v 0.001930 -0.006103 0.230986
v -0.173962 -0.006103 0.169425
v 0.185594 1.524059 -0.006466
v 0.185594 1.295381 -0.006467
v 0.139678 1.295381 -0.144214
v 0.139678 1.524059 -0.144214
v 0.139678 1.524059 0.131283
v 0.139678 1.295381 0.131283
v 0.001930 1.524059 0.177199
v 0.001930 1.295381 0.177199
v -0.135819 1.524059 0.131283
v -0.135819 1.295381 0.131283
v 0.001930 1.524059 -0.190130
v 0.001930 1.295381 -0.190130
v -0.135819 1.295381 -0.144214
v -0.135819 1.524059 -0.144214
v -0.181735 1.524059 -0.006466
v -0.181735 1.295381 -0.006467
v -0.197237 0.151994 -0.006467
v -0.147446 0.151994 0.142909
v -0.135819 0.380672 0.131283
v -0.181735 0.380672 -0.006467
v -0.135819 0.380672 -0.144215
v -0.147446 0.151994 -0.155841
v -0.181735 0.609349 -0.006467
v -0.135819 0.609349 0.131283
v -0.135819 0.838027 0.131283
v -0.181735 0.838027 -0.006467
v -0.135819 0.838027 -0.144214
v -0.135819 0.609349 -0.144215
v -0.181735 1.066704 -0.006467
v -0.135819 1.066704 0.131283
v -0.135819 1.066704 -0.144214
v 0.001930 0.151994 -0.205633
v 0.001930 0.380672 -0.190131
v 0.139678 0.380672 -0.144215
v 0.151305 0.151994 -0.155841
v 0.001930 0.609349 -0.190131
v 0.001930 0.838027 -0.190131
v 0.139678 0.838027 -0.144214
v 0.139678 0.609349 -0.144215
v 0.001930 1.066704 -0.190130
v 0.139678 1.066704 -0.144214
v 0.001930 0.151994 0.192701
v 0.151305 0.151994 0.142909
v 0.139678 0.380672 0.131283
v 0.001930 0.380672 0.177199
v 0.001930 0.609349 0.177199
v 0.139678 0.609349 0.131283
v 0.139678 0.838027 0.131283
v 0.001930 0.838027 0.177199
v 0.001930 1.066704 0.177199
v 0.139678 1.066704 0.131283
v 0.201096 0.151994 -0.006467
v 0.185594 0.380672 -0.006467
v 0.185594 0.609349 -0.006467
v 0.185594 0.838027 -0.006467
v 0.185594 1.066704 -0.006467
vt 0.999820 0.104658
vt 0.856019 0.151382
vt 0.944893 0.029057
vt 0.856019 0.000180
vt 0.767145 0.029057
vt 0.712217 0.104658
vt 0.712217 0.198106
vt 0.767145 0.273706
vt 0.856019 0.302583
vt 0.944893 0.273706
vt 0.999820 0.198105
vt 0.424615 0.104658
vt 0.479542 0.029057
vt 0.568416 0.000180
vt 0.657290 0.029057
vt 0.657290 0.273706
vt 0.568416 0.302583
vt 0.479542 0.273706
vt 0.424615 0.198106
vt 0.424615 0.500869
vt 0.568416 0.454145
vt 0.479542 0.576470
vt 0.568416 0.605347
vt 0.657290 0.576470
vt 0.712218 0.500869
vt 0.712218 0.407421
vt 0.657290 0.331820
vt 0.568416 0.302943
vt 0.479542 0.331820
vt 0.424615 0.407421
vt 0.999820 0.500869
vt 0.944893 0.576470
vt 0.856019 0.605346
vt 0.767145 0.576470
vt 0.767145 0.331820
vt 0.856019 0.302944
vt 0.944893 0.331820
vt 0.999820 0.407421
vt 0.424615 0.803632
vt 0.568416 0.756908
vt 0.479542 0.879233
vt 0.568416 0.908110
vt 0.657290 0.879233
vt 0.712217 0.803632
vt 0.712217 0.710184
vt 0.657290 0.634584
vt 0.568416 0.605707
vt 0.479542 0.634584
vt 0.424615 0.710184
vt 0.999820 0.803632
vt 0.944893 0.879233
vt 0.856019 0.908110
vt 0.767145 0.879233
vt 0.767145 0.634584
vt 0.856019 0.605707
vt 0.944893 0.634584
vt 0.999820 0.710185
vt 0.125387 0.679304
vt 0.077613 0.674403
vt 0.088412 0.643964
vt 0.110286 0.646199
vt 0.124775 0.634124
vt 0.138079 0.646084
vt 0.156742 0.644722
vt 0.161350 0.665472
vt 0.183137 0.683196
vt 0.161243 0.712275
vt 0.361225 0.063216
vt 0.314016 0.025330
vt 0.354321 0.000180
vt 0.399112 0.016009
vt 0.424255 0.056313
vt 0.408427 0.101101
vt 0.368125 0.126240
vt 0.323347 0.110425
vt 0.298195 0.070125
vt 0.049047 0.619985
vt 0.036618 0.547757
vt 0.070456 0.545793
vt 0.077239 0.610511
vt 0.043530 0.674591
vt 0.015674 0.631816
vt 0.001635 0.551098
vt 0.195802 0.633307
vt 0.224269 0.568765
vt 0.256799 0.580503
vt 0.222827 0.653643
vt 0.172148 0.618270
vt 0.192360 0.559142
vt 0.102570 0.607053
vt 0.101725 0.545241
vt 0.132276 0.547576
vt 0.126460 0.605907
vt 0.149190 0.610609
vt 0.162378 0.551738
vt 0.222535 0.148152
vt 0.232597 0.089445
vt 0.278369 0.097965
vt 0.264755 0.156539
vt 0.247092 0.242909
vt 0.208391 0.236313
vt 0.169159 0.231111
vt 0.179653 0.142295
vt 0.186742 0.082246
vt 0.196222 0.321664
vt 0.233180 0.327061
vt 0.220847 0.408359
vt 0.185164 0.402934
vt 0.149413 0.398468
vt 0.159041 0.316750
vt 0.174061 0.480747
vt 0.208088 0.486424
vt 0.140358 0.475993
vt 0.136588 0.138000
vt 0.140475 0.078572
vt 0.129794 0.227024
vt 0.090621 0.224413
vt 0.093583 0.136317
vt 0.093988 0.076203
vt 0.121734 0.312869
vt 0.113581 0.394526
vt 0.077572 0.391506
vt 0.084521 0.309504
vt 0.106413 0.472938
vt 0.071847 0.470642
vt 0.305844 0.166742
vt 0.344956 0.179359
vt 0.321449 0.258812
vt 0.284947 0.250444
vt 0.269899 0.333214
vt 0.306140 0.339544
vt 0.292700 0.420498
vt 0.256723 0.414211
vt 0.242397 0.493494
vt 0.277883 0.501213
vt 0.051260 0.136659
vt 0.047367 0.077848
vt 0.052052 0.222907
vt 0.014608 0.222520
vt 0.010303 0.139799
vt 0.000180 0.082779
vt 0.047362 0.306916
vt 0.041258 0.388829
vt 0.004745 0.386512
vt 0.010627 0.304602
vt 0.036654 0.469503
vt 0.000180 0.468632
vn 0.2561 0.5594 -0.7883
vn 0.6706 0.5594 -0.4872
vn 0.8289 0.5594 0.0000
vn 0.6706 0.5594 0.4872
vn 0.2561 0.5594 0.7883
vn -0.2562 0.5594 0.7883
vn -0.6706 0.5594 0.4872
vn -0.8289 0.5594 0.0000
vn -0.6706 0.5594 -0.4872
vn -0.2562 0.5594 -0.7883
vn 0.0000 -1.0000 -0.0000
vn 0.4072 0.8176 -0.4072
vn -0.4072 0.8176 -0.4072
vn -0.4072 0.8176 0.4072
vn 0.4072 0.8176 0.4072
vn 0.9487 0.0000 -0.3162
vn 0.8897 0.2858 -0.3559
vn 0.8897 0.2858 0.3559
vn 0.9487 -0.0000 0.3162
vn 0.3162 -0.0000 0.9487
vn 0.3559 0.2858 0.8897
vn -0.3559 0.2858 0.8897
vn -0.3162 -0.0000 0.9487
vn -0.3162 0.0000 -0.9487
vn -0.3559 0.2858 -0.8897
vn 0.3559 0.2858 -0.8897
vn 0.3162 0.0000 -0.9487
vn -0.9487 -0.0000 0.3162
vn -0.8897 0.2858 0.3559
vn -0.8897 0.2858 -0.3559
vn -0.9487 0.0000 -0.3162
vn -0.9238 0.2158 0.3163
vn -0.9467 0.0642 0.3156
vn -0.9467 0.0642 -0.3156
vn -0.9238 0.2158 -0.3163
vn -0.3163 0.2158 -0.9238
vn -0.3156 0.0642 -0.9467
vn 0.3156 0.0642 -0.9467
vn 0.3163 0.2158 -0.9238
vn 0.3163 0.2158 0.9238
vn 0.3156 0.0642 0.9467
vn -0.3156 0.0642 0.9467
vn -0.3163 0.2158 0.9238
vn 0.9238 0.2158 -0.3163
vn 0.9467 0.0642 -0.3156
vn 0.9467 0.0642 0.3156
vn 0.9238 0.2158 0.3163
usemtl Material.001
s 1
f 1/1/1 2/2/1 3/3/1
f 3/3/2 2/2/2 4/4/2
f 4/4/3 2/2/3 5/5/3
f 5/5/4 2/2/4 6/6/4
f 6/6/5 2/2/5 7/7/5
f 7/7/6 2/2/6 8/8/6
f 8/8/7 2/2/7 9/9/7
f 9/9/8 2/2/8 10/10/8
f 10/10/9 2/2/9 11/11/9
f 11/11/10 2/2/10 1/1/10
f 1/12/11 3/13/11 4/14/11 5/15/11 6/6/11 7/7/11 8/16/11 9/17/11 10/18/11 11/19/11
f 12/20/1 13/21/1 14/22/1
f 14/22/2 13/21/2 15/23/2
f 15/23/3 13/21/3 16/24/3
f 16/24/4 13/21/4 17/25/4
f 17/25/5 13/21/5 18/26/5
f 18/26/6 13/21/6 19/27/6
f 19/27/7 13/21/7 20/28/7
f 20/28/8 13/21/8 21/29/8
f 21/29/9 13/21/9 22/30/9
f 22/30/10 13/21/10 12/20/10
f 12/31/11 14/32/11 15/33/11 16/34/11 17/25/11 18/26/11 19/35/11 20/36/11 21/37/11 22/38/11
f 23/39/1 24/40/1 25/41/1
f 25/41/2 24/40/2 26/42/2
f 26/42/3 24/40/3 27/43/3
f 27/43/4 24/40/4 28/44/4
f 28/44/5 24/40/5 29/45/5
f 29/45/6 24/40/6 30/46/6
f 30/46/7 24/40/7 31/47/7
f 31/47/8 24/40/8 32/48/8
f 32/48/9 24/40/9 33/49/9
f 33/49/10 24/40/10 23/39/10
f 23/50/11 25/51/11 26/52/11 27/53/11 28/44/11 29/45/11 30/54/11 31/55/11 32/56/11 33/57/11
f 34/58/12 35/59/12 36/60/12 37/61/12
f 34/58/13 37/61/13 38/62/13 39/63/13
f 34/58/14 39/63/14 40/64/14 41/65/14
f 34/58/15 41/65/15 42/66/15 35/67/15
f 43/68/11 44/69/11 45/70/11 46/71/11
f 43/68/11 46/71/11 47/72/11 48/73/11
f 43/68/11 48/73/11 49/74/11 50/75/11
f 43/68/11 50/75/11 51/76/11 44/69/11
f 52/77/16 53/78/16 54/79/16 55/80/16
f 52/77/17 55/80/17 36/60/17 35/59/17
f 52/77/18 35/59/18 42/81/18 56/82/18
f 52/77/19 56/82/19 57/83/19 53/78/19
f 58/84/20 59/85/20 57/86/20 56/87/20
f 58/84/21 56/87/21 42/66/21 41/65/21
f 58/84/22 41/65/22 40/64/22 60/88/22
f 58/84/23 60/88/23 61/89/23 59/85/23
f 62/90/24 63/91/24 64/92/24 65/93/24
f 62/90/25 65/93/25 38/62/25 37/61/25
f 62/90/26 37/61/26 36/60/26 55/80/26
f 62/90/27 55/80/27 54/79/27 63/91/27
f 66/94/28 67/95/28 61/89/28 60/88/28
f 66/94/29 60/88/29 40/64/29 39/63/29
f 66/94/30 39/63/30 38/62/30 65/93/30
f 66/94/31 65/93/31 64/92/31 67/95/31
f 68/96/32 44/97/32 51/98/32 69/99/32
f 68/96/33 69/99/33 70/100/33 71/101/33
f 68/96/34 71/101/34 72/102/34 73/103/34
f 68/96/35 73/103/35 45/104/35 44/97/35
f 74/105/28 71/101/28 70/100/28 75/106/28
f 74/105/28 75/106/28 76/107/28 77/108/28
f 74/105/31 77/108/31 78/109/31 79/110/31
f 74/105/31 79/110/31 72/102/31 71/101/31
f 80/111/28 77/108/28 76/107/28 81/112/28
f 80/111/28 81/112/28 61/89/28 67/95/28
f 80/111/31 67/95/31 64/92/31 82/113/31
f 80/111/31 82/113/31 78/109/31 77/108/31
f 83/114/36 46/115/36 45/104/36 73/103/36
f 83/114/37 73/103/37 72/102/37 84/116/37
f 83/114/38 84/116/38 85/117/38 86/118/38
f 83/114/39 86/118/39 47/119/39 46/115/39
f 87/120/24 84/116/24 72/102/24 79/110/24
f 87/120/24 79/110/24 78/109/24 88/121/24
f 87/120/27 88/121/27 89/122/27 90/123/27
f 87/120/27 90/123/27 85/117/27 84/116/27
f 91/124/24 88/121/24 78/109/24 82/113/24
f 91/124/24 82/113/24 64/92/24 63/91/24
f 91/124/27 63/91/27 54/79/27 92/125/27
f 91/124/27 92/125/27 89/122/27 88/121/27
f 93/126/40 50/75/40 49/74/40 94/127/40
f 93/126/41 94/127/41 95/128/41 96/129/41
f 93/126/42 96/129/42 70/100/42 69/99/42
f 93/126/43 69/99/43 51/98/43 50/75/43
f 97/130/20 96/129/20 95/128/20 98/131/20
f 97/130/20 98/131/20 99/132/20 100/133/20
f 97/130/23 100/133/23 76/107/23 75/106/23
f 97/130/23 75/106/23 70/100/23 96/129/23
f 101/134/20 100/133/20 99/132/20 102/135/20
f 101/134/20 102/135/20 57/86/20 59/85/20
f 101/134/23 59/85/23 61/89/23 81/112/23
f 101/134/23 81/112/23 76/107/23 100/133/23
f 103/136/44 48/137/44 47/119/44 86/118/44
f 103/136/45 86/118/45 85/117/45 104/138/45
f 103/136/46 104/138/46 95/139/46 94/140/46
f 103/136/47 94/140/47 49/141/47 48/137/47
f 105/142/16 104/138/16 85/117/16 90/123/16
f 105/142/16 90/123/16 89/122/16 106/143/16
f 105/142/19 106/143/19 99/144/19 98/145/19
f 105/142/19 98/145/19 95/139/19 104/138/19
f 107/146/16 106/143/16 89/122/16 92/125/16
f 107/146/16 92/125/16 54/79/16 53/78/16
f 107/146/19 53/78/19 57/83/19 102/147/19
f 107/146/19 102/147/19 99/144/19 106/143/19
